<svg xmlns="http://www.w3.org/2000/svg" version="1.1" xmlns:xlink="http://www.w3.org/1999/xlink" xmlns:svgjs="http://svgjs.dev/svgjs" width="1500" height="503" viewBox="0 0 1500 503"><g transform="matrix(1,0,0,1,-0.9090909090909918,0.8494395972494431)"><svg viewBox="0 0 396 133" data-background-color="#e9efe7" preserveAspectRatio="xMidYMid meet" height="503" width="1500" xmlns="http://www.w3.org/2000/svg" xmlns:xlink="http://www.w3.org/1999/xlink"><g id="tight-bounds" transform="matrix(1,0,0,1,0.2400000000000091,-0.2246033129904106)"><svg viewBox="0 0 395.52 133.44920662598082" height="133.44920662598082" width="395.52"><g><svg viewBox="0 0 395.52 133.44920662598082" height="133.44920662598082" width="395.52"><g><svg viewBox="0 0 395.52 133.44920662598082" height="133.44920662598082" width="395.52"><g id="textblocktransform"><svg viewBox="0 0 395.52 133.44920662598082" height="133.44920662598082" width="395.52" id="textblock"><g><svg viewBox="0 0 395.52 133.44920662598082" height="133.44920662598082" width="395.52"><g transform="matrix(1,0,0,1,0,0)"><svg width="395.52" viewBox="1.3 -38.25 114.69 38.7" height="133.44920662598082" data-palette-color="#458ff6"><path d="M10.95-11.2Q14.05-11.85 15.58-13.7 17.1-15.55 17.1-17.28 17.1-19 16.18-19.63 15.25-20.25 14.15-20.25L14.15-20.25Q11.8-20.25 10.03-17.63 8.25-15 8.25-11.38 8.25-7.75 9.98-5.98 11.7-4.2 14.25-4.2L14.25-4.2Q18-4.2 21.45-6.8 24.9-9.4 27.05-13.6L27.05-13.6Q28.15-12.55 29.05-11L29.05-11Q27.4-7.25 23.2-3.65L23.2-3.65Q21.1-1.9 18.23-0.8 15.35 0.3 12.3 0.3L12.3 0.3Q7.3 0.3 4.4-2.75L4.4-2.75Q1.3-6.05 1.3-11.2 1.3-16.35 5.18-20.2 9.05-24.05 14.45-24.05L14.45-24.05Q18.3-24.05 20.7-22.38 23.1-20.7 23.15-17.85L23.15-17.85Q23.15-14 20.08-11.6 17-9.2 11.65-8.25L11.65-8.25 10.95-11.2ZM25.55-26.8L25.55-26.8Q25.55-32.15 30.2-35.2 34.85-38.25 40.9-38.25L40.9-38.25Q48.65-38.25 54.5-33.8L54.5-33.8Q57.4-31.55 59-27.83 60.6-24.1 60.6-19.6L60.6-19.6Q60.6-10.75 55.55-5.2L55.55-5.2Q50.3 0.45 42.4 0.45L42.4 0.45Q40.65 0.45 38.7 0 36.75-0.45 35.6-1.2L35.6-1.2Q33.75 0.2 30.87 0.2 28 0.2 26.4-1.4 24.8-3 24.8-5.5L24.8-5.5Q24.8-11.4 33.75-15.55L33.75-15.55Q34-17.65 34.47-21.23 34.95-24.8 35.22-27 35.5-29.2 35.6-29.9L35.6-29.9Q37.65-31.2 40.35-31.2L40.35-31.2Q41.6-31.2 42.75-30.95L42.75-30.95 39.6-9.6Q39.15-6.75 38.35-4.85L38.35-4.85Q39.9-4.45 40.85-4.45L40.85-4.45Q46.6-4.45 49.75-8.8L49.75-8.8Q53-13.35 53-19.8L53-19.8Q53-28.05 47.05-31.65L47.05-31.65Q43.75-33.65 39.8-33.65L39.8-33.65Q34.75-33.65 31.8-30.9L31.8-30.9Q30.1-29.35 30.1-27.15L30.1-27.15Q30.1-26 30.8-24.98 31.5-23.95 33.25-23.8L33.25-23.8 32.75-20.55Q29.1-20.75 27.32-22.58 25.55-24.4 25.55-26.8ZM28.5-6.15L28.5-6.15Q28.5-4.35 30.2-4.35L30.2-4.35Q30.9-4.35 31.67-5.28 32.45-6.2 32.75-8.2L32.75-8.2 33.2-11.3Q28.5-8.65 28.5-6.15ZM75.25-24.05L75.25-24.05Q79.84-24.05 82.92-21.1 86-18.15 86-13.9L86-13.9Q86-7.45 82.22-3.58 78.45 0.3 73.09 0.3 67.75 0.3 64.62-2.75 61.5-5.8 61.5-10.3L61.5-10.3Q61.5-16.6 65.34-20.3L65.34-20.3Q69.25-24.05 75.25-24.05ZM74.27-20Q71.9-20 70.3-17.3 68.7-14.6 68.55-10.5L68.55-10.5Q68.55-7.6 69.72-5.7 70.9-3.8 73.3-3.8 75.7-3.8 77.32-6.45 78.95-9.1 78.95-12.5 78.95-15.9 77.8-17.9L77.8-17.9Q76.65-20 74.27-20ZM103.79-16.95L103.79-16.95Q103.79-20.2 100.89-20.2L100.89-20.2Q98.74-20.2 97.04-17.75L97.04-17.75Q95.24-15.1 95.24-11.55 95.24-8 96.82-6.08 98.39-4.15 101.14-4.15L101.14-4.15Q104.44-4.15 108.12-6.85 111.79-9.55 114.04-13.55L114.04-13.55Q115.04-12.8 115.99-10.8L115.99-10.8Q114.54-7.9 110.59-4.3L110.59-4.3Q108.54-2.4 105.49-1.1L105.49-1.1Q102.19 0.3 98.89 0.3L98.89 0.3Q94.44 0.3 91.37-2.75 88.29-5.8 88.29-10.7L88.29-10.7Q88.29-16.65 92.29-20.35 96.29-24.05 101.24-24.05L101.24-24.05Q105.09-24.05 107.34-22.45 109.59-20.85 109.59-18.25L109.59-18.25Q109.59-16.55 108.39-15.3L108.39-15.3Q106.19-13.1 103.04-13.1L103.04-13.1Q103.79-15.6 103.79-16.95Z" opacity="1" transform="matrix(1,0,0,1,0,0)" fill="#458ff6" class="wordmark-text-0" data-fill-palette-color="primary" id="text-0"></path></svg></g></svg></g></svg></g></svg></g></svg></g><defs></defs></svg><rect width="395.52" height="133.44920662598082" fill="none" stroke="none" visibility="hidden"></rect></g></svg></g></svg>